<?xml version="1.0" encoding="UTF-8" standalone="no"?>
<!-- Created with Inkscape (http://www.inkscape.org/) -->

<svg
   width="26.458332mm"
   height="12.435416mm"
   viewBox="0 0 26.458332 12.435416"
   version="1.1"
   id="svg378"
   inkscape:version="1.2.1 (9c6d41e410, 2022-07-14)"
   sodipodi:docname="bulb.svg"
   xmlns:inkscape="http://www.inkscape.org/namespaces/inkscape"
   xmlns:sodipodi="http://sodipodi.sourceforge.net/DTD/sodipodi-0.dtd"
   xmlns="http://www.w3.org/2000/svg"
   xmlns:svg="http://www.w3.org/2000/svg">
  <sodipodi:namedview
     id="namedview380"
     pagecolor="#ffffff"
     bordercolor="#666666"
     borderopacity="1.0"
     inkscape:showpageshadow="2"
     inkscape:pageopacity="0.0"
     inkscape:pagecheckerboard="0"
     inkscape:deskcolor="#d1d1d1"
     inkscape:document-units="mm"
     showgrid="false"
     inkscape:zoom="0.71446409"
     inkscape:cx="41.989514"
     inkscape:cy="-4.1989514"
     inkscape:window-width="1920"
     inkscape:window-height="1030"
     inkscape:window-x="0"
     inkscape:window-y="0"
     inkscape:window-maximized="1"
     inkscape:current-layer="layer1" />
  <defs
     id="defs375" />
  <g
     inkscape:label="Layer 1"
     inkscape:groupmode="layer"
     id="layer1"
     transform="translate(-94.164848,-149.68878)">
    <rect
       x="94.164848"
       y="149.68878"
       width="26.458332"
       height="12.435416"
       rx="6.2177081"
       fill="#ffffff"
       id="rect8"
       style="stroke-width:0.264583" />
    <path
       d="m 110.156,151.65093 c -0.22781,-0.24291 -0.54531,-0.55102 -0.98107,-0.7792 -0.42175,-0.22082 -0.84297,-0.33374 -1.40918,-0.37801 -0.095,-0.007 -0.19076,-0.0112 -0.28442,-0.0112 -1.17158,0 -1.98491,0.56743 -2.46089,1.04344 -0.53234,0.53213 -1.1475,1.43171 -1.05701,2.69552 0.0669,0.93334 0.60166,1.66701 1.03108,2.25652 l 0.0182,0.0252 c 0.0767,0.10509 0.15637,0.20801 0.24078,0.31723 0.26564,0.34298 0.54027,0.69763 0.73739,1.14813 l 0.0227,0.0516 c 0.0807,0.18285 0.18071,0.4104 0.16881,0.5275 -0.009,0.0837 -0.045,0.12462 -0.0868,0.17198 -0.0579,0.0658 -0.13017,0.14764 -0.0839,0.323 0.0603,0.2276 0.34713,0.2276 0.67919,0.2276 h 1.7309 c 0.27384,0 0.55721,0 0.61754,-0.22768 0.0455,-0.17131 -0.0336,-0.26736 -0.0971,-0.34448 -0.036,-0.0436 -0.0669,-0.0813 -0.0738,-0.12859 -0.0323,-0.22865 0.21457,-0.74787 0.45773,-1.13353 0.15372,-0.24342 0.31829,-0.45482 0.47783,-0.65921 0.0736,-0.0945 0.14341,-0.18375 0.20929,-0.27302 0.0349,-0.0473 0.0701,-0.0945 0.10557,-0.14169 0.44185,-0.5924 0.89879,-1.20486 0.9689,-2.11547 0.0992,-1.28797 -0.54133,-2.17911 -0.93186,-2.59567 z m -0.65908,4.39269 c -0.0318,0.0418 -0.0632,0.0834 -0.0947,0.12507 -0.055,0.073 -0.11006,0.14542 -0.16536,0.2173 -0.4961,0.64826 -0.96494,1.2614 -1.07474,2.19393 h -1.27397 c -0.13679,-0.98595 -0.61463,-1.61475 -1.12024,-2.2796 -0.0392,-0.0517 -0.0788,-0.10388 -0.11854,-0.15634 l -0.0675,-0.0892 c -0.3937,-0.51946 -0.84005,-1.10818 -0.90408,-1.79613 -0.10133,-1.08656 0.40164,-1.8275 0.84111,-2.25771 0.56145,-0.54978 1.23931,-0.82855 2.01401,-0.82855 0.0886,0 0.17939,0.004 0.27014,0.0112 1.36737,0.11173 2.47227,1.22695 2.57043,2.59413 0.0725,1.01478 -0.41011,1.65079 -0.87683,2.26589 z"
       fill="#231f20"
       id="path10"
       style="stroke-width:0.264583" />
  </g>
</svg>
