<?xml version="1.0" encoding="UTF-8" standalone="no"?>
<!DOCTYPE svg PUBLIC "-//W3C//DTD SVG 1.1//EN" "http://www.w3.org/Graphics/SVG/1.1/DTD/svg11.dtd">
<svg width="100%" height="100%" viewBox="0 0 600 400" version="1.1" xmlns="http://www.w3.org/2000/svg" xmlns:xlink="http://www.w3.org/1999/xlink" xml:space="preserve" xmlns:serif="http://www.serif.com/" style="fill-rule:evenodd;clip-rule:evenodd;stroke-linejoin:round;stroke-miterlimit:2;">
    <g id="Layer1">
        <rect x="-1028.23" y="-248.288" width="1712.17" height="4055.19" style="fill:#3d4345;"/>
        <rect x="-13.101" y="-13.059" width="626.202" height="426.201" style="fill:url(#_Radial1);"/>
        <g id="CorelEMF" serif:id="CorelEMF">
        </g>
        <g id="CorelEMF1" serif:id="CorelEMF">
        </g>
        <g>
            <g id="CorelEMF2" serif:id="CorelEMF">
            </g>
        </g>
        <g id="CorelEMF3" serif:id="CorelEMF">
        </g>
        <g id="CorelEMF4" serif:id="CorelEMF">
        </g>
        <path d="M193.972,261.257L193.972,138.826L215.177,151.069L215.177,273.5L193.972,261.257Z" style="fill:#fff;"/>
        <path d="M192.402,261.257C192.402,261.817 192.702,262.336 193.187,262.616L214.393,274.859C214.878,275.139 215.477,275.139 215.962,274.859C216.448,274.579 216.747,274.06 216.747,273.5L216.747,151.069C216.747,150.508 216.448,149.99 215.962,149.71L194.756,137.467C194.271,137.186 193.673,137.186 193.187,137.467C192.702,137.747 192.402,138.265 192.402,138.826L192.402,261.257ZM195.541,260.351L195.541,141.544C195.541,141.544 213.608,151.975 213.608,151.975C213.608,162.087 213.608,253.746 213.608,270.781L195.541,260.351Z"/>
        <path d="M236.383,285.743L236.383,163.312L257.589,175.555L257.589,297.986L236.383,285.743Z" style="fill:#fff;"/>
        <path d="M234.814,285.743C234.814,286.304 235.113,286.822 235.598,287.102L256.804,299.345C257.29,299.625 257.888,299.625 258.373,299.345C258.859,299.065 259.158,298.547 259.158,297.986L259.158,175.555C259.158,174.994 258.859,174.476 258.373,174.196L237.168,161.953C236.682,161.673 236.084,161.673 235.598,161.953C235.113,162.233 234.814,162.751 234.814,163.312L234.814,285.743ZM237.952,284.837L237.952,166.03C237.952,166.03 256.019,176.461 256.019,176.461C256.019,176.461 256.019,277.31 256.019,295.268L237.952,284.837Z"/>
        <path d="M278.794,310.229L278.794,187.798L300,200.041L300,322.472L278.794,310.229Z" style="fill:#fff;"/>
        <path d="M277.225,310.229C277.225,310.79 277.524,311.308 278.01,311.588L299.215,323.831C299.701,324.112 300.299,324.112 300.785,323.831C301.27,323.551 301.569,323.033 301.569,322.472L301.569,200.041C301.569,199.481 301.27,198.962 300.785,198.682L279.579,186.439C279.093,186.159 278.495,186.159 278.01,186.439C277.524,186.719 277.225,187.238 277.225,187.798L277.225,310.229ZM280.364,309.323L280.364,190.517C280.364,190.517 298.431,200.947 298.431,200.947C298.431,200.947 298.431,319.754 298.431,319.754L280.364,309.323Z"/>
        <path d="M193.972,138.826L300,77.61L406.028,138.826L384.823,151.069L300,102.097L215.177,151.069L193.972,138.826Z" style="fill:#fff;"/>
        <path d="M193.187,137.467C192.702,137.747 192.402,138.265 192.402,138.826C192.402,139.387 192.702,139.905 193.187,140.185L214.393,152.428C214.878,152.708 215.477,152.708 215.962,152.428L300,103.909C300,103.909 384.038,152.428 384.038,152.428C384.523,152.708 385.122,152.708 385.607,152.428L406.813,140.185C407.298,139.905 407.598,139.387 407.598,138.826C407.598,138.265 407.298,137.747 406.813,137.467L300.785,76.251C300.299,75.971 299.701,75.971 299.215,76.251L193.187,137.467ZM197.111,138.826C211.864,130.308 291.243,84.478 300,79.423C300,79.423 387.338,129.847 402.889,138.826C402.889,138.826 384.823,149.257 384.823,149.257C384.823,149.257 300.785,100.737 300.785,100.737C300.299,100.457 299.701,100.457 299.215,100.737C299.215,100.737 223.724,144.322 215.177,149.257C215.177,149.257 197.111,138.826 197.111,138.826Z"/>
        <path d="M236.383,163.312L300,126.583L363.617,163.312L342.411,175.555L300,151.069L257.589,175.555L236.383,163.312Z" style="fill:#fff;"/>
        <path d="M235.598,161.953C235.113,162.233 234.814,162.751 234.814,163.312C234.814,163.873 235.113,164.391 235.598,164.671L256.804,176.914C257.29,177.195 257.888,177.195 258.373,176.914L300,152.881C300,152.881 341.627,176.914 341.627,176.914C342.112,177.195 342.71,177.195 343.196,176.914L364.402,164.671C364.887,164.391 365.186,163.873 365.186,163.312C365.186,162.751 364.887,162.233 364.402,161.953L300.785,125.224C300.299,124.943 299.701,124.943 299.215,125.224L235.598,161.953ZM239.522,163.312C250.174,157.162 293.617,132.08 300,128.395C300,128.395 360.478,163.312 360.478,163.312C360.478,163.312 342.411,173.743 342.411,173.743C342.411,173.743 300.785,149.71 300.785,149.71C300.299,149.429 299.701,149.429 299.215,149.71C299.215,149.71 263.376,170.402 257.589,173.743L239.522,163.312Z"/>
        <path d="M278.794,187.798L300,175.555L321.206,187.798L300,200.041L278.794,187.798Z" style="fill:#fff;"/>
        <path d="M278.01,186.439C277.524,186.719 277.225,187.238 277.225,187.798C277.225,188.359 277.524,188.877 278.01,189.157L299.215,201.4C299.701,201.681 300.299,201.681 300.785,201.4L321.99,189.157C322.476,188.877 322.775,188.359 322.775,187.798C322.775,187.238 322.476,186.719 321.99,186.439L300.785,174.196C300.299,173.916 299.701,173.916 299.215,174.196L278.01,186.439ZM281.933,187.798L300,177.367C300,177.367 318.067,187.798 318.067,187.798C318.067,187.798 300,198.229 300,198.229L281.933,187.798Z"/>
        <path d="M300,322.472L321.206,310.229L321.206,187.798L300,200.041L300,322.472Z"/>
        <path d="M298.431,322.472C298.431,323.033 298.73,323.551 299.215,323.831C299.701,324.112 300.299,324.112 300.785,323.831L321.99,311.588C322.476,311.308 322.775,310.79 322.775,310.229L322.775,187.798C322.775,187.238 322.476,186.719 321.99,186.439C321.505,186.159 320.906,186.159 320.421,186.439L299.215,198.682C298.73,198.962 298.431,199.481 298.431,200.041L298.431,322.472ZM301.569,319.754L301.569,200.947C301.569,200.947 319.636,190.517 319.636,190.517C319.636,190.517 319.636,309.323 319.636,309.323L301.569,319.754Z"/>
        <path d="M342.411,297.986L363.617,285.743L363.617,163.312L342.411,175.555L342.411,297.986Z"/>
        <path d="M340.842,297.986C340.842,298.547 341.141,299.065 341.627,299.345C342.112,299.625 342.71,299.625 343.196,299.345L364.402,287.102C364.887,286.822 365.186,286.304 365.186,285.743L365.186,163.312C365.186,162.751 364.887,162.233 364.402,161.953C363.916,161.673 363.318,161.673 362.832,161.953L341.627,174.196C341.141,174.476 340.842,174.994 340.842,175.555L340.842,297.986ZM343.981,295.268L343.981,176.461C343.981,176.461 362.047,166.03 362.047,166.03C362.047,166.03 362.047,284.837 362.047,284.837L343.981,295.268Z"/>
        <path d="M384.823,273.5L384.823,151.069L406.028,138.826L406.028,261.257L384.823,273.5Z"/>
        <path d="M383.253,273.5C383.253,274.06 383.552,274.579 384.038,274.859C384.523,275.139 385.122,275.139 385.607,274.859L406.813,262.616C407.298,262.336 407.598,261.817 407.598,261.257L407.598,138.826C407.598,138.265 407.298,137.747 406.813,137.467C406.327,137.186 405.729,137.186 405.243,137.467L384.038,149.71C383.552,149.99 383.253,150.508 383.253,151.069L383.253,273.5ZM386.392,270.781L386.392,151.975C386.392,151.975 404.459,141.544 404.459,141.544C404.459,158.58 404.459,250.239 404.459,260.351L386.392,270.781Z"/>
        <path d="M215.177,273.5L236.383,261.257L236.383,163.312L300,126.583L300,102.097L215.177,151.069L215.177,273.5Z"/>
        <path d="M213.608,273.5C213.608,274.06 213.907,274.579 214.393,274.859C214.878,275.139 215.477,275.139 215.962,274.859L237.168,262.616C237.653,262.336 237.952,261.817 237.952,261.257L237.952,164.218C237.952,164.218 300.785,127.942 300.785,127.942C301.27,127.662 301.569,127.143 301.569,126.583L301.569,102.097C301.569,101.536 301.27,101.018 300.785,100.737C300.299,100.457 299.701,100.457 299.215,100.737L214.393,149.71C213.907,149.99 213.608,150.508 213.608,151.069L213.608,273.5ZM216.747,270.781L216.747,151.975C216.747,151.975 298.431,104.815 298.431,104.815C298.431,104.815 298.431,125.677 298.431,125.677C298.431,125.677 235.598,161.953 235.598,161.953C235.113,162.233 234.814,162.751 234.814,163.312L234.814,260.351L216.747,270.781Z"/>
        <path d="M384.823,273.5L363.617,261.257L363.617,163.312L300,126.583L300,102.097L384.823,151.069L384.823,273.5Z" style="fill:#fff;"/>
        <path d="M384.038,274.859C384.523,275.139 385.122,275.139 385.607,274.859C386.093,274.579 386.392,274.06 386.392,273.5L386.392,151.069C386.392,150.508 386.093,149.99 385.607,149.71L300.785,100.737C300.299,100.457 299.701,100.457 299.215,100.737C298.73,101.018 298.431,101.536 298.431,102.097L298.431,126.583C298.431,127.143 298.73,127.662 299.215,127.942L362.047,164.218C362.047,164.218 362.047,261.257 362.047,261.257C362.047,261.817 362.347,262.336 362.832,262.616L384.038,274.859ZM383.253,270.781L365.186,260.351C365.186,250.481 365.186,163.312 365.186,163.312C365.186,162.751 364.887,162.233 364.402,161.953C364.402,161.953 308.854,129.882 301.569,125.677C301.569,125.677 301.569,104.815 301.569,104.815C301.569,104.815 383.253,151.975 383.253,151.975C383.253,151.975 383.253,270.781 383.253,270.781L383.253,270.781Z"/>
        <path d="M257.589,297.986L278.794,285.743L278.794,187.798L300,175.555L300,151.069L257.589,175.555L257.589,297.986Z"/>
        <path d="M256.019,297.986C256.019,298.547 256.318,299.065 256.804,299.345C257.29,299.625 257.888,299.625 258.373,299.345L279.579,287.102C280.065,286.822 280.364,286.304 280.364,285.743L280.364,188.704C280.364,188.704 300.785,176.914 300.785,176.914C301.27,176.634 301.569,176.116 301.569,175.555L301.569,151.069C301.569,150.508 301.27,149.99 300.785,149.71C300.299,149.429 299.701,149.429 299.215,149.71L256.804,174.196C256.318,174.476 256.019,174.994 256.019,175.555L256.019,297.986ZM259.158,295.268C259.158,295.268 259.158,187.479 259.158,176.461C259.158,176.461 298.431,153.787 298.431,153.787C298.431,153.787 298.431,174.649 298.431,174.649C298.431,174.649 278.01,186.439 278.01,186.439C277.524,186.719 277.225,187.238 277.225,187.798L277.225,284.837L259.158,295.268Z"/>
        <path d="M342.411,297.986L321.206,285.743L321.206,187.798L300,175.555L300,151.069L342.411,175.555L342.411,297.986Z" style="fill:#fff;"/>
        <path d="M341.627,299.345C342.112,299.625 342.71,299.625 343.196,299.345C343.682,299.065 343.981,298.547 343.981,297.986L343.981,175.555C343.981,174.994 343.682,174.476 343.196,174.196L300.785,149.71C300.299,149.429 299.701,149.429 299.215,149.71C298.73,149.99 298.431,150.508 298.431,151.069L298.431,175.555C298.431,176.116 298.73,176.634 299.215,176.914L319.636,188.704C319.636,188.704 319.636,285.743 319.636,285.743C319.636,286.304 319.935,286.822 320.421,287.102L341.627,299.345ZM340.842,295.268L322.775,284.837C322.775,274.968 322.775,187.798 322.775,187.798C322.775,187.238 322.476,186.719 321.99,186.439L301.569,174.649C301.569,174.649 301.569,153.787 301.569,153.787C301.569,153.787 335.242,173.228 340.842,176.461L340.842,295.268Z"/>
    </g>
    <defs>
        <radialGradient id="_Radial1" cx="0" cy="0" r="1" gradientUnits="userSpaceOnUse" gradientTransform="matrix(2.19595e-14,-366.128,358.626,2.24189e-14,300,200.041)"><stop offset="0" style="stop-color:#fff;stop-opacity:1"/><stop offset="1" style="stop-color:#eee;stop-opacity:1"/></radialGradient>
    </defs>
</svg>
