<?xml version="1.0" encoding="UTF-8" standalone="no"?>
<!-- Created with Inkscape (http://www.inkscape.org/) -->

<svg
   width="8.4667435mm"
   height="8.4665461mm"
   viewBox="0 0 8.4667435 8.4665461"
   version="1.1"
   id="svg204"
   inkscape:version="1.2.1 (9c6d41e410, 2022-07-14)"
   sodipodi:docname="drawing.svg"
   xmlns:inkscape="http://www.inkscape.org/namespaces/inkscape"
   xmlns:sodipodi="http://sodipodi.sourceforge.net/DTD/sodipodi-0.dtd"
   xmlns="http://www.w3.org/2000/svg"
   xmlns:svg="http://www.w3.org/2000/svg">
  <sodipodi:namedview
     id="namedview206"
     pagecolor="#ffffff"
     bordercolor="#666666"
     borderopacity="1.0"
     inkscape:showpageshadow="2"
     inkscape:pageopacity="0.0"
     inkscape:pagecheckerboard="0"
     inkscape:deskcolor="#d1d1d1"
     inkscape:document-units="mm"
     showgrid="false"
     inkscape:zoom="0.71446409"
     inkscape:cx="82.579378"
     inkscape:cy="198.75037"
     inkscape:window-width="1920"
     inkscape:window-height="1030"
     inkscape:window-x="0"
     inkscape:window-y="0"
     inkscape:window-maximized="1"
     inkscape:current-layer="layer1" />
  <defs
     id="defs201" />
  <g
     inkscape:label="Layer 1"
     inkscape:groupmode="layer"
     id="layer1"
     transform="translate(-83.53346,-95.754194)">
    <path
       d="m 90.907212,100.42782 c -0.09313,0 -0.1905,-0.0297 -0.283633,-0.051 -0.188648,-0.0423 -0.374121,-0.0977 -0.554831,-0.16571 -0.196586,-0.0717 -0.41275,-0.068 -0.60669,0.0105 -0.193939,0.0785 -0.351896,0.22606 -0.443971,0.41441 l -0.09313,0.19545 c -0.411427,-0.23402 -0.791369,-0.51956 -1.131094,-0.849733 -0.329141,-0.340598 -0.613833,-0.721784 -0.847196,-1.134428 l 0.194998,-0.08922 c 0.187854,-0.09223 0.334963,-0.250878 0.413015,-0.4454 0.07832,-0.194522 0.08202,-0.411189 0.01058,-0.608303 -0.06747,-0.183092 -0.122502,-0.370444 -0.165364,-0.560811 -0.02117,-0.09348 -0.0381,-0.191215 -0.0508,-0.284692 -0.05133,-0.29927 -0.207698,-0.570283 -0.440532,-0.764222 -0.233098,-0.193966 -0.527579,-0.298106 -0.830262,-0.293714 h -1.275027 c -0.179123,-2.12e-4 -0.356129,0.03752 -0.519642,0.110728 -0.163512,0.07321 -0.309827,0.180287 -0.429154,0.314166 -0.121708,0.137504 -0.21246,0.299852 -0.265906,0.475853 -0.05345,0.176027 -0.06826,0.361553 -0.04339,0.543851 0.230452,1.768369 1.035844,3.411175 2.291821,4.673605 1.258623,1.25968 2.896394,2.06761 4.659577,2.29859 0.05477,0.004 0.110067,0.004 0.1651,0 0.312208,4.5e-4 0.613833,-0.11451 0.847196,-0.32292 0.13335,-0.11973 0.240241,-0.26644 0.313266,-0.43045 0.07303,-0.16402 0.110596,-0.34166 0.110332,-0.52126 v -1.27463 c -0.0024,-0.29358 -0.105569,-0.57735 -0.292365,-0.80341 -0.186796,-0.22603 -0.445558,-0.38047 -0.732896,-0.43722 z m 0.207698,2.54923 c -2.64e-4,0.0593 -0.0127,0.1179 -0.03678,0.17206 -0.02408,0.0541 -0.05927,0.10263 -0.102923,0.14238 -0.04657,0.0424 -0.101864,0.074 -0.161925,0.0923 -0.06006,0.0184 -0.123296,0.0231 -0.185473,0.0139 -1.580885,-0.20706 -3.049852,-0.92961 -4.180946,-2.0564 -1.132152,-1.13548 -1.858697,-2.614079 -2.067189,-4.206262 -0.009,-0.06231 -0.0045,-0.125889 0.01402,-0.186161 0.01826,-0.06025 0.04974,-0.115649 0.09208,-0.162216 0.03995,-0.04456 0.0889,-0.08009 0.143669,-0.104246 0.05477,-0.02418 0.114035,-0.03643 0.173831,-0.03598 h 1.270794 c 0.0979,-0.0024 0.193675,0.02932 0.270933,0.08975 0.07726,0.06043 0.131233,0.145812 0.152664,0.24167 0,0.114723 0.0381,0.23368 0.0635,0.348403 0.04895,0.222568 0.1143,0.441246 0.194998,0.654289 l -0.593195,0.280431 c -0.101865,0.04694 -0.180975,0.132504 -0.220134,0.237914 -0.04233,0.103452 -0.04233,0.219472 0,0.322924 0.6096,1.309774 1.659202,2.362624 2.965186,2.974104 0.103187,0.0425 0.21881,0.0425 0.321998,0 0.105039,-0.0392 0.190235,-0.11869 0.237066,-0.22093 l 0.266965,-0.59481 c 0.218546,0.0799 0.442119,0.14521 0.669131,0.19543 0.110331,0.0255 0.228865,0.0468 0.343165,0.0637 0.09551,0.0216 0.18071,0.0757 0.241035,0.1532 0.06006,0.0775 0.09181,0.17346 0.08943,0.27167 z m -2.499254,-7.222856 c -0.09737,0 -0.198967,0 -0.296598,0 -0.112183,0.0096 -0.216164,0.06353 -0.288925,0.149992 -0.0725,0.08644 -0.108214,0.198306 -0.09843,0.310992 0.0095,0.112686 0.06324,0.216958 0.14949,0.289851 0.08599,0.07292 0.197643,0.108505 0.310091,0.09893 h 0.224367 c 0.674158,0 1.320535,0.268579 1.797315,0.746655 0.476514,0.478075 0.744273,1.12649 0.744273,1.802579 0,0.07649 0,0.148696 0,0.225187 -0.0093,0.112078 0.02593,0.223335 0.09816,0.309351 0.07223,0.08602 0.175683,0.139779 0.287337,0.149516 h 0.03387 c 0.106098,4.23e-4 0.208492,-0.03905 0.286808,-0.110622 0.07832,-0.0716 0.127265,-0.170074 0.13679,-0.276013 0,-0.09774 0,-0.199708 0,-0.297419 0,-0.900721 -0.356394,-1.764638 -0.991129,-2.40194 -0.634471,-0.637328 -1.495425,-0.995918 -2.393421,-0.997056 z m 0.847196,3.398996 c 0,0.112686 0.04471,0.220742 0.124089,0.300435 0.07937,0.07969 0.187061,0.124433 0.299509,0.124433 0.112448,0 0.220133,-0.04474 0.299508,-0.124433 0.07937,-0.07969 0.12409,-0.187749 0.12409,-0.300435 0,-0.450744 -0.178594,-0.88302 -0.496359,-1.201737 -0.317764,-0.318717 -0.748506,-0.497761 -1.198033,-0.497761 -0.112183,0 -0.220133,0.04477 -0.299508,0.124434 -0.07937,0.07969 -0.12409,0.187748 -0.12409,0.300434 0,0.112686 0.04471,0.220769 0.12409,0.300435 0.07937,0.07969 0.187325,0.12446 0.299508,0.12446 0.224631,0 0.440267,0.08951 0.599017,0.248867 0.159014,0.159358 0.248179,0.375496 0.248179,0.600868 z"
       fill="#ffffff"
       id="path6"
       style="stroke-width:0.264583" />
  </g>
</svg>
